# xmcd CD database file
#
# Track frame offsets:
#	150
#	17090
#	34912
#
# Disc length: 753 seconds
#
# Revision: 0
# Processed by: cddbd v1.5.1PL0 Copyright (c) Steve Scherf et al.
# Submitted via: CDex 1.51
#
DISCID=1c02ef03
DTITLE=gimmefive - 1st Maxi Single
DYEAR=2002
DGENRE=JPop
TTITLE0=ring
TTITLE1=bird
TTITLE2=ヒマワリ
EXTD=YEAR: 2002
EXTT0=
EXTT1=
EXTT2=
PLAYORDER=
